<svg width="135" height="31" viewBox="0 0 135 31" fill="none" xmlns="http://www.w3.org/2000/svg">
<path d="M7.4375 30.7031C6.45833 30.7031 5.68229 30.4219 5.10938 29.8594C4.54688 29.3073 4.26562 28.526 4.26562 27.5156V27.25C4.26562 26.2396 4.48438 25.2396 4.92188 24.25C5.35938 23.2604 5.90104 22.3281 6.54688 21.4531C7.20312 20.5677 7.85938 19.7812 8.51562 19.0938C9.17188 18.3958 9.71354 17.8281 10.1406 17.3906C10.6823 16.8594 10.9479 16.2917 10.9375 15.6875C10.9271 15.0729 10.6615 14.5104 10.1406 14C9.71354 13.5729 9.17188 13.0156 8.51562 12.3281C7.85938 11.6302 7.20312 10.8438 6.54688 9.96875C5.90104 9.08333 5.35938 8.14583 4.92188 7.15625C4.48438 6.16667 4.26562 5.16146 4.26562 4.14062V3.90625C4.26562 2.90625 4.54688 2.125 5.10938 1.5625C5.68229 1 6.45833 0.71875 7.4375 0.71875H20.5625C21.5417 0.71875 22.3125 1 22.875 1.5625C23.4479 2.125 23.7344 2.90625 23.7344 3.90625V4.14062C23.7344 5.16146 23.5104 6.16667 23.0625 7.15625C22.625 8.14583 22.0833 9.08333 21.4375 9.96875C20.7917 10.8438 20.1406 11.6302 19.4844 12.3281C18.8281 13.0156 18.2812 13.5729 17.8438 14C17.3333 14.5104 17.0729 15.0729 17.0625 15.6875C17.0521 16.2917 17.3125 16.8594 17.8438 17.3906C18.2812 17.8281 18.8281 18.3958 19.4844 19.0938C20.1406 19.7812 20.7917 20.5677 21.4375 21.4531C22.0833 22.3281 22.625 23.2604 23.0625 24.25C23.5104 25.2396 23.7344 26.2396 23.7344 27.25V27.5156C23.7344 28.526 23.4479 29.3073 22.875 29.8594C22.3125 30.4219 21.5417 30.7031 20.5625 30.7031H7.4375ZM9.01562 27.5469H18.9844C19.3906 27.5469 19.6458 27.3646 19.75 27C19.8646 26.6458 19.7812 26.3281 19.5 26.0469L15.2656 21.8438C15.0573 21.6354 14.9219 21.4792 14.8594 21.375C14.8073 21.2604 14.7812 21.0312 14.7812 20.6875V14.7188C14.7812 14.2708 14.8438 13.8958 14.9688 13.5938C15.0938 13.2917 15.3125 12.9948 15.625 12.7031C16.0625 12.3177 16.5625 11.8594 17.125 11.3281C17.6875 10.7969 18.1771 10.3021 18.5938 9.84375C18.8542 9.57292 18.9323 9.29167 18.8281 9C18.7344 8.69792 18.4948 8.54688 18.1094 8.54688H9.89062C9.49479 8.54688 9.25 8.69792 9.15625 9C9.0625 9.29167 9.14583 9.57292 9.40625 9.84375C9.8125 10.3021 10.2969 10.7969 10.8594 11.3281C11.4323 11.8594 11.9323 12.3177 12.3594 12.7031C12.6823 12.9948 12.9062 13.2917 13.0312 13.5938C13.1562 13.8958 13.2188 14.2708 13.2188 14.7188V20.6875C13.2188 21.0312 13.1875 21.2604 13.125 21.375C13.0625 21.4792 12.9323 21.6354 12.7344 21.8438L8.5 26.0469C8.21875 26.3281 8.13542 26.6458 8.25 27C8.36458 27.3646 8.61979 27.5469 9.01562 27.5469Z" fill="white"/>
<path d="M54.6562 27.3906C52.75 27.3906 51.1094 26.9167 49.7344 25.9688C48.3594 25.0208 47.3021 23.6771 46.5625 21.9375C45.8333 20.1875 45.4688 18.1198 45.4688 15.7344V15.7031C45.4688 13.3073 45.8333 11.2396 46.5625 9.5C47.3021 7.76042 48.3594 6.42188 49.7344 5.48438C51.1094 4.53646 52.75 4.0625 54.6562 4.0625C56.5625 4.0625 58.1979 4.53646 59.5625 5.48438C60.9375 6.42188 61.9948 7.76042 62.7344 9.5C63.474 11.2396 63.8438 13.3073 63.8438 15.7031V15.7344C63.8438 18.1198 63.474 20.1875 62.7344 21.9375C61.9948 23.6771 60.9375 25.0208 59.5625 25.9688C58.1979 26.9167 56.5625 27.3906 54.6562 27.3906ZM54.6562 23.6094C55.5938 23.6094 56.3906 23.2969 57.0469 22.6719C57.7031 22.0469 58.2031 21.1458 58.5469 19.9688C58.901 18.7917 59.0781 17.3802 59.0781 15.7344V15.7031C59.0781 14.0469 58.901 12.6354 58.5469 11.4688C58.2031 10.2917 57.7031 9.39583 57.0469 8.78125C56.3906 8.15625 55.5938 7.84375 54.6562 7.84375C53.7188 7.84375 52.9167 8.15625 52.25 8.78125C51.5938 9.39583 51.0938 10.2917 50.75 11.4688C50.4062 12.6354 50.2344 14.0469 50.2344 15.7031V15.7344C50.2344 17.3802 50.4062 18.7917 50.75 19.9688C51.0938 21.1458 51.5938 22.0469 52.25 22.6719C52.9167 23.2969 53.7188 23.6094 54.6562 23.6094ZM75.6562 27.3906C73.75 27.3906 72.1094 26.9167 70.7344 25.9688C69.3594 25.0208 68.3021 23.6771 67.5625 21.9375C66.8333 20.1875 66.4688 18.1198 66.4688 15.7344V15.7031C66.4688 13.3073 66.8333 11.2396 67.5625 9.5C68.3021 7.76042 69.3594 6.42188 70.7344 5.48438C72.1094 4.53646 73.75 4.0625 75.6562 4.0625C77.5625 4.0625 79.1979 4.53646 80.5625 5.48438C81.9375 6.42188 82.9948 7.76042 83.7344 9.5C84.474 11.2396 84.8438 13.3073 84.8438 15.7031V15.7344C84.8438 18.1198 84.474 20.1875 83.7344 21.9375C82.9948 23.6771 81.9375 25.0208 80.5625 25.9688C79.1979 26.9167 77.5625 27.3906 75.6562 27.3906ZM75.6562 23.6094C76.5938 23.6094 77.3906 23.2969 78.0469 22.6719C78.7031 22.0469 79.2031 21.1458 79.5469 19.9688C79.901 18.7917 80.0781 17.3802 80.0781 15.7344V15.7031C80.0781 14.0469 79.901 12.6354 79.5469 11.4688C79.2031 10.2917 78.7031 9.39583 78.0469 8.78125C77.3906 8.15625 76.5938 7.84375 75.6562 7.84375C74.7188 7.84375 73.9167 8.15625 73.25 8.78125C72.5938 9.39583 72.0938 10.2917 71.75 11.4688C71.4062 12.6354 71.2344 14.0469 71.2344 15.7031V15.7344C71.2344 17.3802 71.4062 18.7917 71.75 19.9688C72.0938 21.1458 72.5938 22.0469 73.25 22.6719C73.9167 23.2969 74.7188 23.6094 75.6562 23.6094ZM90.0156 23.8125C89.3073 23.8125 88.7083 23.5677 88.2188 23.0781C87.7292 22.5885 87.4844 21.9896 87.4844 21.2812C87.4844 20.5729 87.7292 19.974 88.2188 19.4844C88.7083 18.9948 89.3073 18.75 90.0156 18.75C90.724 18.75 91.3229 18.9948 91.8125 19.4844C92.3021 19.974 92.5469 20.5729 92.5469 21.2812C92.5469 21.9896 92.3021 22.5885 91.8125 23.0781C91.3229 23.5677 90.724 23.8125 90.0156 23.8125ZM90.0156 12.6875C89.3073 12.6875 88.7083 12.4427 88.2188 11.9531C87.7292 11.4635 87.4844 10.8646 87.4844 10.1562C87.4844 9.44792 87.7292 8.84896 88.2188 8.35938C88.7083 7.86979 89.3073 7.625 90.0156 7.625C90.724 7.625 91.3229 7.86979 91.8125 8.35938C92.3021 8.84896 92.5469 9.44792 92.5469 10.1562C92.5469 10.8646 92.3021 11.4635 91.8125 11.9531C91.3229 12.4427 90.724 12.6875 90.0156 12.6875ZM103.766 27.3906C102.057 27.3906 100.568 27.1146 99.2969 26.5625C98.026 26 97.0156 25.224 96.2656 24.2344C95.526 23.2448 95.1042 22.1042 95 20.8125L94.9844 20.6094H99.4844L99.5156 20.7812C99.5885 21.3229 99.8021 21.8073 100.156 22.2344C100.521 22.651 101.005 22.9844 101.609 23.2344C102.224 23.474 102.938 23.5938 103.75 23.5938C104.562 23.5938 105.266 23.4635 105.859 23.2031C106.453 22.9323 106.911 22.5625 107.234 22.0938C107.568 21.6146 107.734 21.0677 107.734 20.4531V20.4219C107.734 19.3385 107.354 18.5104 106.594 17.9375C105.833 17.3646 104.771 17.0781 103.406 17.0781H100.828V13.7188H103.344C104.135 13.7188 104.823 13.5885 105.406 13.3281C105.99 13.0677 106.438 12.7083 106.75 12.25C107.073 11.7812 107.234 11.2448 107.234 10.6406V10.6094C107.234 9.99479 107.094 9.47396 106.812 9.04688C106.542 8.60938 106.141 8.27604 105.609 8.04688C105.089 7.80729 104.458 7.6875 103.719 7.6875C102.99 7.6875 102.344 7.80729 101.781 8.04688C101.219 8.28646 100.771 8.625 100.438 9.0625C100.104 9.48958 99.901 9.99479 99.8281 10.5781L99.8125 10.7188H95.4844L95.5 10.5312C95.6042 9.21875 96.0052 8.08333 96.7031 7.125C97.4115 6.15625 98.3646 5.40625 99.5625 4.875C100.76 4.33333 102.146 4.0625 103.719 4.0625C105.344 4.0625 106.75 4.3125 107.938 4.8125C109.135 5.30208 110.062 5.98958 110.719 6.875C111.375 7.76042 111.703 8.79688 111.703 9.98438V10.0156C111.703 10.9531 111.495 11.776 111.078 12.4844C110.661 13.1927 110.094 13.776 109.375 14.2344C108.667 14.6927 107.875 15.0156 107 15.2031V15.2969C108.677 15.4531 110.016 15.9948 111.016 16.9219C112.026 17.849 112.531 19.0781 112.531 20.6094V20.6406C112.531 21.9844 112.167 23.1615 111.438 24.1719C110.708 25.1823 109.688 25.974 108.375 26.5469C107.062 27.1094 105.526 27.3906 103.766 27.3906ZM124.344 27.3906C122.438 27.3906 120.797 26.9167 119.422 25.9688C118.047 25.0208 116.99 23.6771 116.25 21.9375C115.521 20.1875 115.156 18.1198 115.156 15.7344V15.7031C115.156 13.3073 115.521 11.2396 116.25 9.5C116.99 7.76042 118.047 6.42188 119.422 5.48438C120.797 4.53646 122.438 4.0625 124.344 4.0625C126.25 4.0625 127.885 4.53646 129.25 5.48438C130.625 6.42188 131.682 7.76042 132.422 9.5C133.161 11.2396 133.531 13.3073 133.531 15.7031V15.7344C133.531 18.1198 133.161 20.1875 132.422 21.9375C131.682 23.6771 130.625 25.0208 129.25 25.9688C127.885 26.9167 126.25 27.3906 124.344 27.3906ZM124.344 23.6094C125.281 23.6094 126.078 23.2969 126.734 22.6719C127.391 22.0469 127.891 21.1458 128.234 19.9688C128.589 18.7917 128.766 17.3802 128.766 15.7344V15.7031C128.766 14.0469 128.589 12.6354 128.234 11.4688C127.891 10.2917 127.391 9.39583 126.734 8.78125C126.078 8.15625 125.281 7.84375 124.344 7.84375C123.406 7.84375 122.604 8.15625 121.938 8.78125C121.281 9.39583 120.781 10.2917 120.438 11.4688C120.094 12.6354 119.922 14.0469 119.922 15.7031V15.7344C119.922 17.3802 120.094 18.7917 120.438 19.9688C120.781 21.1458 121.281 22.0469 121.938 22.6719C122.604 23.2969 123.406 23.6094 124.344 23.6094Z" fill="white"/>
</svg>
