<svg width="67" height="66" viewBox="0 0 67 66" fill="none" xmlns="http://www.w3.org/2000/svg">
<path d="M33.5 65.5312C29.0417 65.5312 24.8438 64.6771 20.9062 62.9688C16.9688 61.2812 13.5 58.9375 10.5 55.9375C7.5 52.9375 5.14583 49.4792 3.4375 45.5625C1.75 41.625 0.90625 37.4167 0.90625 32.9375C0.90625 28.4792 1.75 24.2917 3.4375 20.375C5.14583 16.4375 7.48958 12.9688 10.4688 9.96875C13.4688 6.96875 16.9375 4.625 20.875 2.9375C24.8125 1.22917 29.0104 0.375 33.4688 0.375C37.9271 0.375 42.125 1.22917 46.0625 2.9375C50.0208 4.625 53.4896 6.96875 56.4688 9.96875C59.4688 12.9688 61.8229 16.4375 63.5312 20.375C65.2396 24.2917 66.0938 28.4792 66.0938 32.9375C66.0938 37.4167 65.2396 41.625 63.5312 45.5625C61.8229 49.4792 59.4688 52.9375 56.4688 55.9375C53.4896 58.9375 50.0312 61.2812 46.0938 62.9688C42.1562 64.6771 37.9583 65.5312 33.5 65.5312ZM30.0312 48.4375C30.6562 48.4375 31.2292 48.2917 31.75 48C32.2917 47.6875 32.75 47.2604 33.125 46.7188L47.7188 24.1562C47.9479 23.8021 48.1354 23.4271 48.2812 23.0312C48.4479 22.6354 48.5312 22.2396 48.5312 21.8438C48.5312 20.9688 48.1979 20.2604 47.5312 19.7188C46.8854 19.1771 46.1458 18.9062 45.3125 18.9062C44.2083 18.9062 43.2812 19.5 42.5312 20.6875L29.9375 40.8125L24.1562 33.5625C23.7396 33.0417 23.3229 32.6771 22.9062 32.4688C22.4896 32.2396 22.0208 32.125 21.5 32.125C20.625 32.125 19.8854 32.4375 19.2812 33.0625C18.6771 33.6667 18.375 34.4062 18.375 35.2812C18.375 35.6979 18.4479 36.1042 18.5938 36.5C18.7604 36.875 18.9896 37.2604 19.2812 37.6562L26.8125 46.7188C27.2708 47.3021 27.7604 47.7396 28.2812 48.0312C28.8021 48.3021 29.3854 48.4375 30.0312 48.4375Z" fill="white"/>
</svg>
