<svg width="393" height="852" viewBox="0 0 393 852" fill="none" xmlns="http://www.w3.org/2000/svg">
<g clip-path="url(#clip0_89_733)">
<rect width="393" height="852" fill="#5547B0"/>
<rect width="393" height="852" fill="#4771B0"/>
<path d="M143.551 10.2746C141.958 10.7775 138.855 12.7889 136.675 14.8003L132.566 18.4879L128.961 16.3927C126.948 15.3032 123.762 13.9622 121.834 13.3755C114.539 11.5317 107.076 15.806 103.387 24.1869C101.626 28.0422 101.123 28.545 99.5296 28.126C93.2409 26.2822 83.7659 26.785 61.6295 29.9698L38.9901 33.2383L29.012 26.7012C23.5618 23.0136 18.3631 20.0803 17.5246 20.0803C14.4222 20.0803 16.0153 22.6784 22.3879 27.7907C25.9096 30.7241 29.7667 33.9088 30.9405 34.9145L33.1206 36.7583L25.2388 44.2174C17.7761 51.3412 16.4345 53.604 19.8724 53.604C22.1363 53.604 31.3598 47.1507 35.8877 42.3736L40.164 37.9317L50.8968 37.4288C56.7663 37.0936 65.4028 36.2555 70.0145 35.5012C79.5734 33.9088 97.3495 33.6574 100.871 35.0821C102.129 35.585 103.387 36.6745 103.722 37.4288C106.07 44.1336 114.874 44.5526 114.874 38.0155C114.874 37.2612 113.281 35.0821 111.436 33.3222C107.998 30.0536 107.998 29.9698 108.921 26.785C110.933 19.9127 117.893 17.3146 124.852 20.8346C129.296 23.0974 130.302 24.6898 130.135 28.7126C129.799 33.6574 132.483 37.8479 135.585 37.5126C137.01 37.345 138.352 36.4231 139.191 34.9983C140.281 32.9031 140.281 32.3164 138.939 28.4612C137.597 24.6898 137.597 24.1031 138.771 21.8403C140.281 18.907 144.054 16.0574 147.324 15.387C150.426 14.8003 156.464 16.3089 159.901 18.6555C162.585 20.4993 162.585 20.4993 162.165 26.366C161.662 32.9869 163.004 36.6745 167.112 39.6917L169.376 41.3678L171.64 39.6917C175.078 37.0936 175.581 33.6574 173.485 27.8745C170.802 20.4155 170.886 19.2422 174.827 16.9793C181.032 13.4593 188.075 15.2193 193.944 21.5889C196.879 24.9412 197.047 25.3603 197.047 31.0593C197.047 39.1888 199.562 43.6307 203.336 42.2059C206.606 40.9488 207.109 36.0879 204.677 29.0479L203 24.2707L205.096 21.8403C207.947 18.4041 211.888 17.2308 216.5 18.4041C221.699 19.8289 225.64 23.4327 230.587 31.0593C232.934 34.7469 235.869 38.1831 237.043 38.7698C238.72 39.524 243.248 39.2726 258.173 37.8479C283.915 35.2498 281.651 34.9983 284.67 41.284C286.347 44.804 287.688 46.564 288.862 46.7316C291.294 47.0669 307.896 37.4288 310.999 33.9088C316.7 27.4555 313.011 22.9298 300.433 21.0022C289.449 19.326 282.657 19.9965 280.729 22.9298C280.393 23.4327 280.058 25.2765 280.058 27.0365C280.058 28.7965 279.639 30.305 279.052 30.5564C276.788 31.3107 240.9 33.4898 239.475 32.9869C238.72 32.7355 237.295 30.8917 236.372 29.0479C234.108 24.6898 227.736 17.9012 223.459 15.4708C216.5 11.4479 208.031 12.0346 202.413 16.8955L199.478 19.4936L196.376 16.5603C188.243 8.76603 177.594 7.50889 169.376 13.4593L166.022 15.8898L162.417 13.627C155.877 9.52031 149.42 8.34698 143.551 10.2746Z" fill="#3761A1"/>
<path d="M370.364 30.3045C347.054 54.8607 344.538 58.1292 346.131 61.6492C346.718 62.8225 351.33 65.9235 358.29 69.8625C364.494 73.3825 370.029 76.7349 370.532 77.3216C371.873 78.9977 370.867 79.6682 353.007 89.5577C335.986 99.0282 332.883 101.375 332.883 104.643C332.883 107.577 333.051 107.661 342.274 115.036C346.718 118.64 350.575 122.16 350.827 122.914C351.162 123.752 349.569 126.685 346.383 131.043C333.135 148.895 328.858 156.689 332.296 156.689C333.973 156.689 380.761 126.099 381.767 124.422C382.941 122.16 381.6 119.98 375.563 114.617C372.376 111.767 369.777 108.75 369.777 107.996C369.777 105.146 377.24 100.285 395.603 91.1501C410.696 83.6073 414.301 81.512 414.72 79.9196C414.972 78.8301 415.056 77.3216 414.804 76.6511C414.133 75.0587 409.27 72.1254 402.478 69.1921C399.46 67.8511 395.435 65.9235 393.506 64.7502C387.469 61.314 388.056 60.0568 402.059 46.3121C409.606 38.9369 414.217 33.7407 414.217 32.735C414.217 31.6455 412.624 30.1369 409.186 28.0417C402.395 23.935 387.05 16.7274 384.954 16.7274C383.948 16.7274 378.497 21.756 370.364 30.3045ZM397.447 27.7065C403.401 30.556 408.348 33.1541 408.348 33.4893C408.348 33.8245 406.335 35.6683 403.904 37.5121C397.364 42.6245 387.553 53.0169 386.128 56.453C383.109 63.5768 385.038 66.0911 398.705 72.4606C403.904 74.9749 408.432 77.3216 408.683 77.8244C409.354 78.9139 409.102 78.9977 395.938 85.1996C372.125 96.3463 363.488 103.386 365.752 109.84C366.171 111.097 368.938 114.281 371.957 116.88C374.892 119.478 377.323 121.908 377.323 122.243C377.323 122.579 374.976 124.171 372.125 125.847C369.19 127.607 361.56 132.552 355.103 136.91C348.647 141.268 343.28 144.704 343.113 144.62C342.945 144.453 345.88 140.262 349.569 135.401C356.696 126.015 357.451 123.92 355.019 119.98C354.349 118.723 350.156 114.952 345.796 111.516C341.436 108.08 337.914 105.062 337.914 104.727C337.914 103.889 343.029 100.453 348.815 97.4358C374.305 83.7749 376.736 82.1825 376.736 78.4111C376.736 74.9749 374.137 72.8797 361.644 66.1749C355.523 62.9064 350.492 60.0568 350.492 59.973C350.492 59.1349 356.78 52.1788 367.848 40.5293C374.892 33.1541 381.348 26.1979 382.354 24.8569C383.361 23.5998 384.702 22.5941 385.373 22.5941C386.044 22.5941 391.41 24.9407 397.447 27.7065Z" fill="#3761A1"/>
<path d="M174.408 70.7846V80.4227L169.377 77.9084C166.61 76.5674 164.01 75.3941 163.507 75.3941C161.579 75.3941 162.92 77.9922 166.526 81.1769C169.125 83.4398 170.048 84.6969 169.293 84.9484C168.622 85.1998 163.675 86.5407 158.141 87.8817C147.827 90.396 145.731 91.4855 147.324 93.0779C147.911 93.6645 151.936 93.4131 160.908 92.0721C167.951 91.0664 173.905 90.4798 174.156 90.7312C174.408 91.0664 172.982 93.9998 171.054 97.3521C169.041 100.705 167.364 103.722 167.197 103.973C167.029 104.308 167.448 104.979 168.035 105.482C169.041 106.32 169.88 105.901 172.563 103.554C174.408 101.878 176.252 100.537 176.672 100.537C177.091 100.537 177.929 103.051 178.6 106.152C180.026 113.36 181.032 115.623 182.877 115.623C185.14 115.623 185.56 113.024 184.889 103.386C184.554 98.5255 184.554 94.6702 184.973 94.6702C185.392 94.6702 188.746 96.0112 192.435 97.6036C199.73 100.788 202.078 101.207 202.078 99.3636C202.078 97.6874 200.737 96.514 194.28 92.0721C191.178 90.0607 188.662 88.1331 188.662 87.8817C188.662 87.6303 192.939 86.2055 198.137 84.6969C207.445 82.015 211.302 80.255 211.302 78.7465C211.302 77.4893 206.019 77.7408 197.634 79.2493C193.609 80.0036 190.004 80.4227 189.752 80.0874C189.501 79.836 190.088 77.6569 191.094 75.3103C194.867 66.1751 192.519 65.337 186.65 73.8017C184.47 77.0703 182.29 79.4169 181.954 78.9979C181.619 78.6627 180.696 75.3103 179.858 71.6227C178.181 63.7446 177.091 61.1465 175.498 61.1465C174.659 61.1465 174.408 63.3256 174.408 70.7846Z" fill="#3761A1"/>
<path d="M289.868 81.4284C275.697 103.638 261.024 143.782 256.999 171.523C256.244 176.72 255.825 181.329 256.16 181.832C256.496 182.335 261.191 178.228 267.145 172.445C272.846 166.746 277.961 161.969 278.381 161.885C278.884 161.718 286.011 154.342 294.312 145.542C307.812 131.211 311.333 126.518 308.483 126.518C305.799 126.518 296.324 134.48 282.405 148.56C273.685 157.276 266.642 164.064 266.642 163.645C266.642 162.891 288.694 126.183 290.455 124.003C291.042 123.333 293.306 119.729 295.57 116.125C299.259 110.091 307.225 99.2797 314.855 89.8093C316.448 87.7979 317.79 85.6188 317.79 84.9483C317.79 82.0988 314.352 84.3617 305.967 92.9102C299.343 99.5312 295.067 104.895 289.868 112.773C281.064 126.266 273.601 138.754 269.996 145.794C268.486 148.811 267.061 150.822 266.893 150.32C266.39 148.811 283.16 104.224 288.778 92.2398C291.796 85.9541 294.312 80.0874 294.48 79.2493C295.067 75.9807 292.551 77.0703 289.868 81.4284Z" fill="#3761A1"/>
<path d="M49.3035 82.518C46.6203 84.0266 45.7818 86.2894 46.5365 90.3123C48.0458 98.4418 56.7661 107.409 82.8434 127.775C93.4085 136.072 101.961 143.028 101.793 143.196C101.71 143.364 92.9892 138.586 82.4241 132.552C42.5955 109.924 24.6517 102.967 15.6798 106.739C3.10232 111.935 19.7046 130.625 49.8905 145.291C59.3655 149.901 83.1788 159.539 101.039 165.992C106.573 168.003 110.43 169.763 109.675 169.931C108.921 170.099 104.141 169.596 99.0264 168.925C82.9273 166.663 74.3746 167.584 68.7566 172.278C63.558 176.72 66.4927 182.083 76.0516 185.771C85.6104 189.459 90.7253 190.381 103.974 190.8C115.629 191.219 138.771 190.045 145.144 188.788C146.905 188.453 147.659 188.704 148.078 189.794C148.498 190.8 147.324 192.56 144.054 195.912C135.333 204.963 134.159 207.561 137.849 209.908C140.28 211.501 145.982 210.746 160.907 206.807C166.106 205.466 171.221 204.544 172.227 204.796C173.15 205.047 178.181 209.238 183.379 214.015C192.854 222.899 196.041 224.826 198.304 222.899C200.065 221.474 199.898 217.283 197.718 206.807C195.454 196.08 195.202 196.582 205.012 192.643C218.261 187.447 221.195 185.352 220.022 182.251C219.267 180.407 215.326 179.485 202.497 178.061C196.124 177.39 190.59 176.468 190.255 176.133C189.919 175.798 188.242 170.685 186.482 164.651C182.792 152.331 180.78 148.727 177.761 148.727C175.917 148.727 174.994 150.068 170.55 158.617C167.783 164.064 164.932 168.925 164.261 169.344C162.501 170.434 159.482 170.266 158.727 168.925C157.302 166.411 136.172 142.861 125.188 131.463C103.638 109.169 87.2036 95.6761 72.0268 87.6304C60.7909 81.6799 53.8314 80.0875 49.3035 82.518ZM68.5051 91.318C88.3775 101.459 105.399 116.545 147.072 160.796C150.762 164.735 153.361 168.003 152.858 168.171C152.439 168.339 148.833 167.752 144.976 166.914L137.933 165.322L122.84 153.421C114.539 146.884 99.6972 135.234 89.8868 127.524C80.0764 119.897 69.1759 111.265 65.7381 108.331C56.5146 100.369 49.2197 89.3066 51.7352 86.8761C51.9867 86.5409 53.6637 86.2894 55.4245 86.2894C57.6885 86.2894 61.5456 87.798 68.5051 91.318ZM25.9933 111.516C31.7789 112.773 44.6918 117.886 54.9214 122.998C62.8033 126.853 130.805 165.824 132.734 167.584C133.74 168.506 134.914 174.289 134.159 174.289C132.482 174.289 62.3841 146.045 54.0829 142.023C36.7261 133.642 23.4778 124.255 18.5307 116.712C14.6736 110.929 16.7698 109.421 25.9933 111.516ZM182.792 167.165C184.637 172.697 186.733 178.061 187.404 179.066C188.913 181.329 192.687 182.335 202.329 183.089C206.354 183.424 209.624 183.927 209.624 184.262C209.624 184.598 206.522 186.358 202.748 188.118C193.944 192.392 191.177 194.739 191.177 197.756C191.177 199.097 192.1 203.958 193.19 208.567C194.28 213.261 194.867 217.2 194.531 217.451C194.196 217.619 189.752 213.847 184.637 209.07C179.522 204.293 174.323 200.102 173.15 199.767C171.808 199.432 165.687 200.605 156.715 202.784C148.917 204.712 142.293 206.137 141.957 205.885C141.706 205.55 143.718 203.036 146.485 200.102C152.103 194.236 154.283 191.219 154.283 189.542C154.283 188.956 151.097 185.101 147.156 180.91C140.28 173.703 138.268 170.266 141.538 171.272C146.905 172.864 161.075 175.211 163.423 174.792C167.448 174.122 169.041 172.362 173.736 163.059C176.671 157.108 178.097 155.013 178.6 155.935C179.019 156.605 180.864 161.634 182.792 167.165ZM94.3308 172.613C105.231 173.87 115.461 175.63 128.29 178.647C139.023 181.162 143.383 183.005 141.957 184.43C140.867 185.436 107.579 187.112 100.2 186.442C89.6352 185.603 76.1354 182 72.3622 179.066C70.1821 177.39 71.1883 175.295 74.8777 173.954C81.5018 171.607 83.598 171.44 94.3308 172.613Z" fill="#3761A1"/>
<path d="M428.472 149.062C419.752 151.828 414.469 156.354 410.444 164.232C408.432 168.255 408.432 168.255 405.246 167.5C400.215 166.327 389.733 166.662 384.786 168.087C375.06 170.937 365.836 177.474 360.638 185.268C351.833 198.426 350.324 213.847 356.11 230.609L358.29 237.146L355.858 238.99C344.455 247.622 339.088 260.445 341.184 274.022C344.203 293.382 361.141 311.233 386.631 321.793C390.991 323.637 395.351 325.146 396.441 325.146C400.55 325.146 397.783 322.799 388.476 318.106C375.647 311.736 368.939 307.294 361.979 300.422C350.659 289.108 345.796 278.464 346.467 266.647C346.719 262.708 347.557 258.685 348.563 256.338C350.408 252.148 355.103 246.533 359.044 243.767L361.476 242.007L363.321 244.437C367.094 249.298 373.047 254.411 377.827 256.841C381.935 258.936 383.78 259.355 388.811 259.355C395.938 259.355 398.957 257.679 400.634 252.735C401.472 249.969 401.472 249.131 400.131 246.114C398.286 241.923 393.59 237.649 388.308 235.218C385.373 233.961 382.606 233.542 376.485 233.458C372.125 233.375 367.346 233.71 365.92 234.045C363.405 234.715 363.237 234.548 361.56 230.693C357.367 220.719 356.864 206.053 360.47 196.75C364.411 186.609 372.963 178.144 383.193 174.205C389.398 171.859 400.969 171.104 405.078 172.864C408.013 174.038 408.096 174.205 408.6 179.988C409.606 192.14 417.572 201.946 426.376 201.946C430.652 201.946 434.341 198.258 434.341 193.9C434.341 187.112 427.298 177.893 418.41 172.864C413.463 170.099 413.211 168.674 416.565 163.31C421.093 156.27 428.975 152.499 439.289 152.499C450.273 152.499 461.257 156.689 472.158 164.902C478.698 169.847 488.005 179.82 488.005 181.832C488.005 182.67 487.251 185.017 486.328 187.112C481.8 197.253 482.387 210.578 487.754 221.306C491.108 228.011 495.049 231.279 499.744 231.279C512.909 231.279 511.315 207.226 496.642 184.095C495.132 181.748 495.132 181.748 497.229 180.156C503.769 175.043 514.418 175.965 527.415 182.754C537.393 187.95 543.681 193.649 553.408 206.556C563.135 219.378 568.166 225.245 568.836 224.491C569.926 223.401 560.2 208.232 551.228 197.001C541.334 184.681 529.846 176.803 516.766 173.367C507.542 170.937 500.918 171.775 494.462 176.217L492.198 177.809L486.244 171.439C468.384 152.331 445.661 143.531 428.472 149.062ZM418.829 179.318C428.304 185.771 432.832 196.917 425.956 196.917C420.758 196.917 414.553 188.872 413.631 180.91C413.044 175.965 413.714 175.798 418.829 179.318ZM498.151 197.337C503.434 208.316 505.111 217.535 503.014 223.569C501.924 226.837 500.163 227.424 497.313 225.748C491.862 222.563 488.425 213.512 488.425 202.365C488.425 197.001 488.844 193.649 490.018 190.716L491.611 186.609L493.288 188.62C494.21 189.71 496.39 193.649 498.151 197.337ZM386.715 240.415C392.165 242.761 396.777 248.376 395.938 251.561C394.932 255.5 387.218 255.752 380.007 252.148C374.808 249.634 366.926 242.007 367.513 240.163C368.352 237.649 380.678 237.816 386.715 240.415Z" fill="#3761A1"/>
<path d="M306.89 187.447C304.543 188.369 295.151 195.409 293.558 197.505C291.378 200.186 292.552 202.952 296.493 204.377C298.086 204.964 299.344 205.718 299.344 206.221C299.344 206.64 296.828 209.657 293.81 212.925C290.791 216.278 283.832 225.245 278.381 232.872C272.931 240.499 267.146 248.209 265.636 250.053L262.785 253.322L253.646 247.203C237.211 236.308 233.438 235.386 228.239 240.75C225.64 243.432 212.14 270.167 212.14 272.598C212.14 274.441 213.482 275.028 214.488 273.771C214.907 273.268 218.345 266.899 222.118 259.691C229.581 245.36 231.929 242.175 235.115 242.175C236.373 242.175 241.823 245.36 248.95 250.137C255.407 254.495 261.444 258.099 262.45 258.099C263.372 258.099 264.965 257.596 265.888 257.009C266.894 256.506 275.614 245.527 285.257 232.704C294.9 219.882 303.285 209.238 303.872 208.986C304.459 208.735 306.89 209.322 309.238 210.244C311.586 211.165 314.101 211.752 314.856 211.501C316.701 210.746 319.049 202.365 319.049 196.331C319.049 189.626 316.785 186.861 311.586 186.945C309.657 186.945 307.561 187.196 306.89 187.447Z" fill="#3761A1"/>
<path d="M60.7911 212.841C58.9464 213.679 56.5148 215.104 55.4248 216.026C53.4962 217.619 53.4124 217.619 48.8006 214.853C41.0026 210.16 34.8816 211.333 31.276 218.121C29.5152 221.474 29.599 231.112 31.3599 238.822C35.3008 255.836 42.0088 267.653 56.3471 283.157L61.1265 288.27L63.2228 285.588C65.6544 282.236 72.1947 267.82 75.0456 259.439C82.3405 237.649 80.5797 217.535 70.8531 212.841C66.5768 210.746 65.0675 210.746 60.7911 212.841ZM70.1823 217.451C72.1108 218.792 74.1232 224.239 74.9617 230.274C75.7164 235.218 74.2071 246.533 71.6916 255.081C69.3438 263.043 61.3781 281.565 60.288 281.565C58.4433 281.565 48.1298 266.982 44.0212 258.517C35.0493 240.331 32.3661 219.462 38.7387 217.367C41.2542 216.613 45.4466 217.702 48.1298 219.881L50.5615 221.893L49.0522 227.927C46.6205 237.649 48.8006 247.119 53.9155 249.55C55.9279 250.556 56.5987 250.472 58.3595 249.298C59.5334 248.544 60.875 246.952 61.2942 245.695C62.8035 242.007 61.7135 232.285 59.2818 226.838C58.1079 224.156 57.2694 221.558 57.521 220.971C58.2756 219.043 63.3066 216.194 65.8221 216.194C67.2476 216.194 69.1761 216.78 70.1823 217.451ZM56.2633 231.866C57.521 235.721 57.6887 242.678 56.431 243.935C54.2509 246.114 51.7354 236.476 53.1608 230.86C53.9155 227.843 55.0055 228.262 56.2633 231.866Z" fill="#3761A1"/>
<path d="M138.352 247.79C138.352 248.041 139.862 251.058 141.706 254.411C143.551 257.763 145.06 260.696 145.06 260.948C145.06 261.786 138.017 264.971 137.765 264.3C137.011 261.954 129.38 250.22 128.542 249.885C126.697 249.298 127.368 252.232 130.806 259.523C132.651 263.462 134.16 266.815 134.16 266.982C134.16 267.15 130.303 269.915 125.607 273.016C120.828 276.201 116.216 279.637 115.377 280.643C113.784 282.403 113.784 282.403 115.377 282.403C116.3 282.403 121.499 280.14 126.865 277.374L136.675 272.346L138.939 276.955L141.287 281.649L138.352 283.912C131.141 289.527 125.775 294.304 125.775 294.974C125.775 296.651 128.458 295.729 135.837 291.538C140.029 289.108 143.551 287.348 143.719 287.515C143.886 287.683 145.228 290.197 146.737 293.047C151.433 302.014 153.864 299.752 149.672 290.281C148.498 287.683 147.576 285.42 147.576 285.253C147.576 284.834 156.799 279.051 157.47 279.051C157.805 279.134 159.231 281.062 160.572 283.493C163.004 287.683 166.023 289.694 166.023 287.18C166.023 286.51 164.849 283.828 163.423 281.146C161.998 278.548 160.992 276.285 161.159 276.201C161.327 276.034 163.507 274.441 166.107 272.514C171.473 268.658 173.569 266.647 173.569 265.557C173.569 263.965 169.88 264.887 164.178 267.904L158.309 271.005L156.715 268.994C155.793 267.82 154.535 265.893 153.864 264.635C152.607 262.456 152.691 262.289 156.296 259.858C158.309 258.434 160.153 256.757 160.405 256.003C161.159 254.159 157.051 254.327 153.613 256.422C150.007 258.601 148.917 258.517 147.157 255.919C143.803 250.807 138.352 245.778 138.352 247.79ZM151.349 268.742C152.523 270.502 153.445 272.346 153.445 272.933C153.445 273.938 146.905 278.213 145.396 278.213C144.389 278.213 140.616 270.67 141.203 270.083C142.545 268.658 147.324 265.725 148.163 265.641C148.75 265.641 150.175 267.066 151.349 268.742Z" fill="#3761A1"/>
<path d="M297.247 276.62C291.965 278.296 290.12 281.146 290.12 287.683V292.209L280.142 293.55C259.18 296.483 229.581 307.127 209.625 318.776L204.342 321.877L194.699 320.955C189.417 320.452 184.134 320.201 182.96 320.536C179.355 321.458 182.541 323.386 189.752 324.643C193.358 325.229 196.46 325.9 196.628 326.151C196.879 326.403 195.37 327.744 193.358 329.252C191.261 330.677 187.488 333.778 184.889 336.208L180.193 340.483L170.215 340.567C163.675 340.65 159.902 340.986 159.231 341.656C157.805 343.081 160.74 344.087 169.544 345.092C173.569 345.511 177.426 346.349 178.097 346.852C178.768 347.439 180.109 351.546 181.116 355.987C183.799 368.643 183.967 369.146 185.644 369.397C187.153 369.732 187.153 369.146 186.817 361.016C186.398 353.473 185.644 349.869 183.296 344.338C182.876 343.416 184.47 341.74 189.165 338.22C192.771 335.622 197.131 332.689 198.976 331.767L202.246 330.007L201.659 339.226C201.072 348.193 201.575 350.791 203.587 348.361C205.013 346.685 207.109 338.471 207.78 331.85L208.367 325.565L220.944 319.279C235.953 311.82 253.059 305.367 267.397 301.763C277.04 299.332 289.282 297.489 289.282 298.494C289.282 298.746 288.695 300.338 288.024 301.93C286.347 306.121 286.431 313.915 288.276 317.603C290.456 321.961 293.307 323.05 298.757 321.458C301.188 320.704 304.71 319.111 306.555 317.77C311.167 314.418 319.803 306.289 322.822 302.517L325.337 299.332L322.319 293.382C319.132 287.096 313.095 280.14 308.819 277.877C305.381 276.201 300.35 275.614 297.247 276.62ZM306.806 281.9C309.741 283.409 314.94 289.108 318.461 294.723L321.229 298.997L316.784 303.188C309.154 310.311 304.962 313.58 300.601 315.591C295.403 318.022 294.648 318.106 293.139 315.675C290.204 310.898 291.294 300.59 295.151 297.07C297.164 295.31 297.247 293.466 295.57 291.287C293.81 288.94 293.977 284.414 295.99 282.403C298.002 280.391 303.369 280.14 306.806 281.9Z" fill="#3761A1"/>
<path d="M3.52169 300.59C1.76084 301.26 0 305.618 0 309.39C0.0838497 322.464 8.88807 339.058 18.95 344.925L22.6394 347.104L25.4903 345.344C36.3069 338.639 47.2912 319.363 45.6981 309.976C44.1049 300.674 37.397 300.171 27.7543 308.719C25.4065 310.815 23.1425 312.575 22.8071 312.491C22.4717 312.491 20.5432 310.396 18.5308 307.881C13.2483 301.093 8.21727 298.662 3.52169 300.59ZM10.7328 307.211C11.739 307.881 14.0868 310.731 15.9314 313.413C19.4531 318.609 21.3817 320.201 23.4779 319.447C24.1487 319.279 26.9996 316.933 29.7666 314.251C35.2169 309.055 38.1516 307.211 39.4094 307.965C39.9125 308.216 40.2479 310.479 40.2479 312.91C40.2479 319.363 35.8038 327.828 28.2574 335.706C25.0711 339.142 21.9686 341.908 21.3817 341.908C19.4531 341.908 13.4998 334.365 10.4812 328.163C7.29492 321.794 4.61173 310.898 5.45023 307.797C5.95333 305.535 8.04957 305.283 10.7328 307.211Z" fill="#3761A1"/>
<path d="M102.716 319.614C101.71 320.704 99.0266 324.643 96.8465 328.331L92.9056 335.119L89.8032 331.013C82.2567 321.039 72.6978 318.106 68.7569 324.559C63.5582 333.024 70.937 356.407 83.0952 369.816C88.6293 375.85 95.0857 381.298 96.9304 381.298C100.201 381.298 109.005 362.441 112.443 348.026C115.461 335.371 114.455 320.872 110.43 318.274C108.418 317.016 104.728 317.603 102.716 319.614ZM108.921 331.515C109.172 339.226 108.502 341.237 106.238 338.723C104.98 337.382 104.98 336.795 106.07 332.689C106.741 330.174 107.328 327.409 107.328 326.571C107.328 323.805 105.567 325.23 103.806 329.336C102.716 332.018 101.71 333.275 101.291 332.856C100.368 331.934 101.374 329.588 104.561 325.313C107.495 321.374 108.502 322.799 108.921 331.515ZM82.2567 330.929C84.5206 333.108 86.3653 335.454 86.3653 336.125C86.3653 336.712 85.1076 336.041 83.5983 334.533C82.089 333.024 80.4958 331.851 80.0766 331.851C79.5735 331.851 78.6512 333.611 77.9804 335.873C77.2257 338.052 76.3034 339.729 75.8841 339.729C74.2071 339.477 71.7755 335.119 71.7755 332.437C71.7755 328.079 72.614 326.822 75.5487 326.822C77.645 326.822 79.1542 327.744 82.2567 330.929ZM99.2782 340.734C98.5235 342.494 97.5173 344.925 97.0981 346.014C96.4273 347.942 96.2596 347.942 95.0018 346.685C93.6602 345.428 93.7441 345.176 95.4211 343.332C96.4273 342.243 97.2658 341.153 97.2658 340.902C97.2658 340.567 97.685 339.31 98.1043 338.052C98.6912 336.544 99.2782 336.041 99.8651 336.628C100.368 337.131 100.201 338.555 99.2782 340.734ZM83.8498 344.338C83.0113 347.439 82.7598 347.691 81.3343 346.936C79.4058 345.931 79.2381 344.171 80.5797 340.315C81.502 337.55 81.5859 337.55 83.179 339.226C84.6045 340.651 84.6883 341.237 83.8498 344.338ZM106.07 343.584C107.579 345.26 107.579 345.512 106.154 351.462C105.399 354.814 103.638 360.011 102.213 362.86L99.6974 368.224L97.5173 365.961C95.4211 363.866 95.3372 363.614 96.3434 360.346C97.2658 357.077 97.5173 356.91 99.8651 357.412C102.632 358.083 102.968 357.161 100.955 354.06C99.6974 352.216 99.7813 351.63 101.039 347.607C103.219 340.986 103.471 340.734 106.07 343.584ZM92.151 348.864C94.4987 351.881 94.5826 352.3 93.6602 354.731C92.151 358.334 91.1448 358.334 88.4616 354.898C86.4492 352.216 86.2815 351.378 86.7846 348.11C87.3715 343.835 88.21 343.919 92.151 348.864ZM80.0766 351.127C81.502 352.719 81.3343 356.993 79.7412 356.993C78.6512 356.993 76.3872 351.881 76.8903 350.54C77.4773 349.032 78.3158 349.199 80.0766 351.127ZM88.9647 361.268C90.3901 363.279 90.474 363.866 89.5516 365.961C88.9647 367.218 88.4616 368.475 88.2939 368.643C87.9585 369.146 85.6107 366.967 83.8498 364.62C82.5082 362.609 82.4244 362.106 83.5144 359.591C84.856 356.491 85.6945 356.742 88.9647 361.268ZM96.4273 369.984C98.1043 371.744 98.272 372.331 97.4335 374.174C96.2596 376.772 94.7503 376.856 92.3187 374.258C90.474 372.331 90.474 372.163 91.8156 370.068C93.5764 367.386 93.9956 367.386 96.4273 369.984Z" fill="#3761A1"/>
<path d="M281.232 344.841C242.913 351.797 235.031 379.706 263.875 406.441C283.328 424.376 316.365 440.551 341.185 444.239C350.576 445.58 364.495 444.825 371.538 442.563C381.936 439.294 388.392 430.745 386.883 422.365C384.535 409.709 368.268 397.222 346.719 391.69C333.219 388.254 311.502 387.919 310.412 391.187C309.993 392.445 311.67 392.696 325.756 393.786C339.927 394.875 350.492 397.557 360.973 402.669C373.97 409.039 381.516 417.42 381.516 425.465C381.516 434.014 370.113 439.965 353.511 439.965C326.092 439.965 288.359 423.119 266.223 400.993C255.742 390.517 252.053 383.98 252.053 375.431C251.969 370.906 252.388 369.313 254.316 365.961C265.385 347.104 306.136 344.003 353.846 358.418C379.923 366.212 398.873 374.174 414.553 383.728C425.621 390.517 434.342 394.037 428.724 389.427C424.196 385.656 403.653 373.085 395.352 368.978C374.138 358.418 341.772 348.277 318.545 344.841C307.896 343.332 289.533 343.332 281.232 344.841Z" fill="#3761A1"/>
<path d="M307.309 373.001C300.517 374.007 293.977 377.359 291.881 380.795C289.282 384.986 289.533 390.936 292.552 395.63C297.918 404.178 313.43 413.23 329.697 417.336C337.579 419.348 350.827 420.521 351.666 419.18C352.504 417.839 351.33 417.42 344.119 416.414C324.415 413.733 298.673 399.82 295.906 390.434C294.48 385.824 295.906 383.226 301.356 380.544C304.878 378.784 306.974 378.449 316.449 378.114C328.272 377.695 335.399 378.7 350.492 382.639C369.274 387.584 391.494 397.306 406.168 407.028C416.146 413.565 427.885 425.047 431.323 431.5C435.851 439.965 434.174 448.178 426.627 454.631C411.451 467.622 380.342 471.058 342.862 463.767C323.912 460.079 317.79 457.9 283.58 442.479C279.22 440.552 275.53 439.211 275.279 439.462C274.021 440.635 276.453 442.814 284.334 447.424C300.685 457.146 322.402 465.024 343.281 468.795C375.395 474.746 401.64 473.237 419.668 464.353C427.717 460.331 432.748 456.224 435.851 451.028C437.779 447.675 438.115 446.167 438.115 440.803C438.115 435.523 437.696 433.679 435.599 429.489C432.161 422.616 419.5 410.045 409.271 403.256C378.246 382.807 332.045 369.062 307.309 373.001Z" fill="#3761A1"/>
<path d="M126.194 413.481C122.085 415.911 111.52 422.197 102.716 427.393C93.9954 432.505 84.2688 438.037 81.1663 439.629C75.2969 442.562 73.9553 443.82 75.213 445.077C76.9739 446.837 79.7409 445.412 122.253 420.94C124.181 419.766 125.774 419.18 125.774 419.599C125.774 421.191 117.893 430.075 113.616 433.26C105.315 439.378 108.837 441.389 122.672 438.372C142.712 434.014 195.034 425.13 195.873 425.884C196.292 426.303 188.746 428.818 174.826 432.841C170.718 434.014 158.224 436.863 147.156 439.042C121.498 444.239 112.862 447.423 114.287 451.111C114.706 452.201 115.964 452.536 119.653 452.536C127.284 452.62 146.737 455.553 146.737 456.642C146.737 456.978 132.315 457.732 114.706 458.319C82.1725 459.324 78.7347 459.743 78.1478 462.677C77.7285 464.772 79.2378 464.94 90.5575 464.185C96.3431 463.766 111.268 463.096 123.762 462.593C145.898 461.755 159.482 460.246 161.327 458.402C161.914 457.816 161.914 457.145 161.327 456.056C160.656 455.05 156.38 453.793 145.982 451.53C138.016 449.854 131.308 448.261 131.057 448.01C130.554 447.507 130.386 447.507 151.181 443.233C181.451 437.115 213.062 426.806 217.171 421.945C218.931 419.85 217.506 418.174 213.9 418.174C210.546 418.174 125.187 432.17 123.93 432.924C122.169 434.098 123.678 431.416 127.703 426.471C135.836 416.582 138.352 412.894 138.352 410.966C138.352 407.698 134.579 408.452 126.194 413.481Z" fill="#3761A1"/>
<path d="M234.36 413.23C233.186 414.99 234.947 421.694 238.133 428.064C243.164 438.037 254.065 450.19 254.065 445.748C254.065 445.161 251.381 440.635 248.111 435.607C244.841 430.662 240.732 423.371 238.888 419.432C237.043 415.492 235.366 412.308 235.198 412.308C235.031 412.308 234.611 412.727 234.36 413.23Z" fill="#3761A1"/>
<path d="M51.9867 444.155C48.9681 445.999 45.2787 448.178 43.8533 448.932L41.1701 450.273L37.6484 446.334C35.2168 443.568 33.6236 442.479 32.3659 442.646C30.7727 442.898 30.605 443.568 30.1858 450.441L29.7665 457.983L18.2791 463.096C6.03708 468.543 4.19238 469.633 4.19238 471.477C4.19238 473.74 7.96562 474.997 16.7698 475.667C30.6889 476.589 29.6827 475.835 30.1858 486.143C30.605 494.441 30.6889 494.86 32.5336 495.111C35.1329 495.53 36.3068 494.357 41.2539 487.065C45.7818 480.361 45.698 480.361 52.1544 483.629C56.263 485.724 59.1978 485.641 60.3717 483.545C61.4617 481.534 61.4617 481.534 56.0115 474.243C53.8314 471.142 51.9867 468.041 51.9867 467.37C51.9867 466.616 54.3345 461.001 57.1015 454.883C62.3841 443.484 62.7195 441.557 59.0301 440.97C58.1077 440.886 55.0053 442.311 51.9867 444.155ZM50.729 455.637L48.5489 460.498L46.8719 458.486C46.0334 457.397 45.2787 456.14 45.2787 455.553C45.2787 454.631 52.0706 449.854 52.6575 450.441C52.8252 450.608 51.9867 452.955 50.729 455.637ZM36.0553 453.458C36.0553 453.877 35.7199 454.212 35.2168 454.212C34.7975 454.212 34.3783 453.625 34.3783 452.871C34.3783 452.201 34.7975 451.865 35.2168 452.117C35.7199 452.368 36.0553 452.955 36.0553 453.458ZM42.7632 463.431C44.9433 467.705 45.111 468.711 44.2725 470.555C43.2663 472.902 42.1763 473.069 37.5646 471.728C34.3783 470.89 34.3783 470.89 34.3783 466.281C34.3783 462.006 34.546 461.587 37.1453 460.079C38.5708 459.157 39.9124 458.403 39.9962 458.403C40.1639 458.403 41.3378 460.665 42.7632 463.431ZM29.6827 466.364C30.9404 469.801 28.2572 471.309 22.6393 470.303L18.8661 469.633L23.0586 467.37C27.9218 464.856 29.0119 464.688 29.6827 466.364ZM39.2416 478.433C40.2478 479.02 40.1639 479.522 39.0739 481.534C38.4031 482.875 37.0615 484.886 36.1391 486.06L34.3783 488.155V482.875C34.3783 478.014 34.546 477.679 36.3068 477.679C37.313 477.679 38.6546 478.014 39.2416 478.433Z" fill="#3761A1"/>
<path d="M176.503 478.685C170.299 480.864 163.674 490.25 161.83 499.469C161.327 501.983 160.74 504.498 160.572 505.084C160.32 505.755 158.979 505.503 155.793 504.33C149.588 501.816 139.861 501.732 135.836 504.163C124.768 510.532 132.315 521.092 160.237 538.273C161.914 539.279 163.171 541.541 165.1 546.738C169.628 559.225 176.839 572.383 179.187 572.383C179.941 572.383 186.733 569.115 194.28 565.176C210.211 556.879 208.199 557.13 226.394 561.069C240.397 564.086 252.136 564.254 257.083 561.656C266.139 556.962 261.527 547.324 247.356 541.29C243.919 539.781 240.816 538.357 240.481 538.105C240.145 537.854 242.158 534.921 244.925 531.736C253.981 521.176 257.335 511.454 254.567 504.163C252.22 498.044 246.518 496.368 237.211 499.134C230.586 501.062 218.177 507.766 208.786 514.555C204.341 517.74 200.317 520.422 199.897 520.422C199.478 520.422 199.143 516.147 199.059 510.951C198.975 495.363 194.196 483.629 186.146 479.523C182.121 477.511 180.36 477.344 176.503 478.685ZM184.385 484.719C187.068 486.227 190.926 492.178 192.519 497.29C193.273 499.804 194.028 506.258 194.28 513.13C194.783 525.702 195.537 527.713 198.975 526.372C200.065 525.953 206.689 521.679 213.817 516.902C227.903 507.431 237.798 502.822 244.254 502.822C249.453 502.822 251.046 504.749 250.543 510.616C249.62 522.182 238.72 534.418 218.261 547.073C213.313 550.174 208.953 552.269 207.528 552.269C202.078 552.269 169.963 539.781 168.118 536.848C166.19 533.831 165.016 519.583 166.022 509.862C167.364 496.536 170.718 488.658 176.42 485.138C179.438 483.294 181.618 483.21 184.385 484.719ZM154.283 507.766L159.733 509.191L160.32 521.26C160.656 527.964 160.823 533.496 160.656 533.58C160.572 533.663 157.553 531.903 153.948 529.641C145.311 524.025 135.836 514.806 135.836 511.873C135.836 506.677 143.634 504.917 154.283 507.766ZM244.757 544.391C251.381 547.324 255.658 550.509 257.167 553.442C258.425 555.789 258.341 556.04 256.664 557.381C252.807 560.566 241.235 560.482 225.472 557.298C220.692 556.292 216.416 555.202 216.08 554.867C215.661 554.448 219.854 551.263 225.304 547.743C236.372 540.62 236.456 540.536 244.757 544.391ZM181.954 547.911C187.739 550.174 194.615 552.772 197.298 553.61C199.897 554.448 202.078 555.37 202.078 555.705C202.078 556.292 180.947 568.193 179.941 568.193C179.103 568.193 172.982 555.454 171.137 549.922C169.125 543.972 168.957 542.715 170.466 543.301C170.969 543.553 176.168 545.648 181.954 547.911Z" fill="#3761A1"/>
<path d="M347.473 497.793C330.452 498.128 326.175 498.463 324.918 499.469C322.905 501.145 296.409 536.429 294.732 539.781C293.055 542.966 293.642 545.899 296.241 547.659C297.247 548.33 300.937 549.419 304.374 550.174C314.269 552.185 314.436 552.185 314.436 553.694C314.436 555.956 310.663 560.314 295.906 575.316C288.191 583.111 281.483 590.486 281.064 591.659C279.303 596.855 282.238 598.783 294.48 600.375C300.853 601.213 303.201 601.8 304.039 602.973C305.548 605.069 305.548 610.768 303.871 616.97C302.194 623.423 292.636 643.453 285.676 655.103C278.046 667.842 277.459 669.183 278.633 670.356C280.561 672.284 282.741 671.027 291.965 662.646C308.902 647.141 310.495 645.8 326.595 632.39C350.576 612.444 353.846 609.175 353.846 604.985C353.846 601.465 351.079 600.124 341.184 598.951C336.489 598.364 332.464 597.526 332.296 597.023C332.129 596.604 338.837 589.564 347.306 581.518C362.734 566.768 377.156 551.431 380.007 546.821C382.019 543.469 382.019 539.195 379.923 538.021C379.001 537.602 373.55 537.183 367.681 537.183C352.923 537.183 352.84 537.77 368.519 520.002C378.162 509.023 381.097 504.497 380.342 501.564C379.336 497.457 376.904 497.206 347.473 497.793ZM373.97 503.911C373.97 504.581 371.454 508.017 368.352 511.537C365.165 515.057 360.135 520.924 356.948 524.444C351.079 531.149 349.234 535.088 350.492 538.356C351.75 541.625 355.439 542.547 366.088 541.96C371.79 541.709 375.814 541.793 376.15 542.295C376.401 542.798 376.066 543.972 375.311 545.061C373.047 548.497 355.523 566.349 342.526 578.501C329.026 591.072 325.672 595.347 326.511 598.867C327.265 601.8 330.871 603.141 340.346 603.979C345.712 604.398 348.396 604.985 348.647 605.739C349.15 607.248 343.952 611.941 326.259 626.356C318.21 632.81 306.722 642.448 300.853 647.644C294.983 652.84 290.12 656.863 290.12 656.611C290.12 656.276 293.642 649.32 298.002 641.023C302.362 632.81 306.722 623.926 307.728 621.244C311.334 611.522 310.663 601.632 306.051 598.196C304.71 597.274 301.356 596.352 296.828 595.85C287.521 594.76 285.928 594.341 285.928 593.168C285.928 592.665 291.545 586.547 298.421 579.591C313.514 564.254 318.377 558.303 319.132 554.28C319.971 549.922 317.958 548.414 308.986 546.235C304.794 545.229 300.937 544.055 300.35 543.469C299.511 542.715 300.685 540.619 305.968 533.16C309.657 528.048 315.694 519.332 319.384 513.8C323.073 508.353 326.511 503.659 327.014 503.492C327.517 503.408 338.25 503.157 350.911 502.989C370.196 502.821 373.97 502.905 373.97 503.911Z" fill="#3761A1"/>
<path d="M69.1762 509.945C64.0613 515.309 57.2695 532.155 60.2043 532.155C61.7974 532.155 69.5954 522.265 71.7755 517.488C74.2072 512.208 74.7941 507.85 73.1171 507.263C72.5302 507.012 70.7693 508.269 69.1762 509.945Z" fill="#3761A1"/>
<path d="M76.0521 535.005C74.2075 536.848 72.9497 543.721 72.9497 551.85C72.9497 559.477 73.369 561.488 75.1298 561.488C76.3875 561.488 79.49 551.766 80.1608 545.732C80.6639 541.039 79.5738 534.502 78.3161 534.083C77.7291 533.915 76.7229 534.334 76.0521 535.005Z" fill="#3761A1"/>
<path d="M50.3096 548.498C49.8065 549.084 48.8842 552.101 48.3811 555.035C47.6264 559.477 47.7103 561.404 48.8842 566.181C50.4773 572.635 52.1543 575.065 53.8313 573.389C55.0891 572.132 55.3406 553.526 54.2506 549.503C53.5798 546.989 51.9028 546.57 50.3096 548.498Z" fill="#3761A1"/>
<path d="M88.294 556.962C86.8685 560.65 93.1572 577.412 97.3497 581.267C98.7752 582.524 98.9429 582.524 99.446 581.351C99.6975 580.68 99.3621 576.993 98.6075 573.221C96.5951 562.326 90.1386 552.185 88.294 556.962Z" fill="#3761A1"/>
<path d="M72.6137 580.597C71.9429 582.692 73.3683 589.061 75.4645 593.587C77.3931 597.778 82.5918 603.393 84.4365 603.393C87.2035 603.393 83.598 591.324 78.6508 583.698C75.6322 579.172 73.3683 577.999 72.6137 580.597Z" fill="#3761A1"/>
<path d="M51.1484 593.335C51.1484 596.017 54.167 602.554 56.7664 605.488C60.4558 609.678 64.9836 611.354 65.906 608.84C66.6606 606.829 62.3843 598.867 58.2757 594.593C53.8316 590.067 51.1484 589.564 51.1484 593.335Z" fill="#3761A1"/>
<path d="M232.347 598.029C229.832 601.214 227.736 608.254 227.736 613.702C227.652 618.73 228.071 619.484 232.599 622.25C233.857 623.004 233.857 623.675 232.683 630.38C232.012 634.319 230.419 640.772 229.245 644.627C227.065 651.416 220.022 666.25 218.931 666.25C218.68 666.166 215.997 664.322 212.978 661.976C203.839 655.02 199.478 653.26 191.177 653.26C183.128 653.26 179.438 654.684 174.491 659.713C168.957 665.244 167.867 672.536 171.389 680.079C178.264 694.997 197.466 695.164 214.404 680.665L220.273 675.553L224.717 680.917C233.521 691.812 240.313 705.054 244.003 718.631C248.866 736.231 249.117 736.901 250.124 735.896C251.465 734.555 249.704 723.073 246.434 712.178C243.416 702.12 236.456 688.208 230.587 680.498C222.285 669.686 222.705 671.865 227.233 663.987C232.096 655.522 235.282 646.136 236.959 634.989C237.714 630.296 238.468 625.603 238.636 624.597C238.888 623.34 239.81 622.502 241.319 622.166C248.782 620.574 249.285 618.898 245.344 608.422C240.984 596.772 236.288 593.001 232.347 598.029ZM200.065 660.383C204.258 662.227 215.494 670.189 215.494 671.279C215.494 671.614 213.397 673.877 210.798 676.307C199.143 686.867 185.895 689.13 178.851 681.671C173.401 675.804 173.401 668.345 178.851 662.981C184.385 657.701 191.932 656.696 200.065 660.383Z" fill="#3761A1"/>
<path d="M105.65 598.029C103.386 600.627 109.675 608.421 117.221 612.444C125.69 616.97 128.625 615.713 123.678 609.678C120.911 606.242 112.945 599.957 108.501 597.694C107.076 596.939 106.405 597.023 105.65 598.029Z" fill="#3761A1"/>
<path d="M91.1443 619.065C87.7065 622.417 101.793 633.48 108.25 632.558C109.34 632.474 110.346 631.72 110.514 631.05C111.268 627.027 93.8275 616.299 91.1443 619.065Z" fill="#3761A1"/>
<path d="M70.4341 622.082C70.4341 626.021 80.8314 633.564 86.3655 633.564C88.2941 633.564 88.881 633.229 88.881 631.888C88.881 628.117 77.8967 620.155 72.698 620.155C70.9372 620.155 70.4341 620.574 70.4341 622.082Z" fill="#3761A1"/>
<path d="M142.376 624.178C139.022 624.597 137.765 626.524 139.525 628.452C144.221 633.648 163.842 633.061 161.075 627.781C159.733 625.435 149.168 623.34 142.376 624.178Z" fill="#3761A1"/>
<path d="M182.373 625.518C170.718 629.29 169.712 634.234 180.78 633.312C187.152 632.81 194.112 629.206 194.112 626.44C194.112 625.015 193.441 624.764 189.919 624.596C187.656 624.512 184.218 624.932 182.373 625.518Z" fill="#3761A1"/>
<path d="M121.414 637.419C120.492 637.671 119.905 638.677 119.905 639.934C119.905 641.61 120.659 642.364 123.678 643.705C128.709 645.884 134.83 646.555 138.687 645.297C142.125 644.208 142.377 643.621 140.196 641.694C136.842 638.677 125.774 636.162 121.414 637.419Z" fill="#3761A1"/>
<path d="M382.354 657.785C376.149 659.713 369.861 665.412 366.339 672.284C360.553 683.599 366.004 701.701 375.73 703.545C384.786 705.221 395.267 696.924 398.705 685.191C402.059 674.128 398.034 661.473 390.152 658.204C387.217 656.947 385.54 656.863 382.354 657.785ZM388.056 668.01C390.907 670.943 391.662 679.24 389.565 684.185C387.972 688.124 383.612 692.734 380.593 693.823C378.329 694.578 377.826 694.41 376.065 692.734C372.041 688.711 371.202 677.061 374.388 670.273C375.982 667.004 376.988 666.585 382.941 666.334C385.54 666.25 386.882 666.753 388.056 668.01Z" fill="#3761A1"/>
<path d="M347.892 668.68C345.88 669.937 341.771 672.954 338.836 675.385C333.973 679.324 333.302 679.575 331.709 678.569C322.989 672.87 318.629 670.44 317.371 670.44C316.029 670.44 316.029 670.524 317.371 672.703C318.209 674.044 320.976 676.977 323.492 679.324L328.188 683.514L319.383 692.314C309.741 701.868 298.421 715.11 296.325 719.133C294.564 722.569 295.738 723.826 299.176 722.066C300.517 721.396 308.902 713.769 317.706 705.221L333.638 689.632L342.107 697.594C349.988 705.053 353.259 707.316 354.516 706.143C355.523 705.053 352.169 699.941 345.544 692.649C341.855 688.459 338.753 684.855 338.753 684.52C338.753 684.185 341.436 680.916 344.706 677.396C350.492 671.027 353.762 666.249 352.336 666.249C352.001 666.249 349.988 667.339 347.892 668.68Z" fill="#3761A1"/>
<path d="M125.523 667.675C125.188 667.926 124.936 672.452 124.936 677.564C124.936 682.76 124.684 693.823 124.349 702.204C123.678 721.396 123.007 721.732 117.39 705.305C112.778 692.063 111.185 689.381 107.495 689.046C102.297 688.543 100.536 695.248 99.0265 721.815C98.6072 728.688 98.0203 734.471 97.8526 734.722C97.3495 735.225 97.1818 734.638 94.4147 716.116C90.8092 692.985 89.6353 689.716 84.6882 689.716C79.9087 689.716 78.7349 694.074 76.3032 720.223C75.3809 729.861 74.6262 738.326 74.6262 739.08C74.6262 739.751 74.4585 740.086 74.1231 739.834C73.8716 739.583 72.7815 732.711 71.6915 724.665C68.5052 700.863 65.6543 694.074 59.6171 696.002C56.7662 696.924 55.2569 700.444 52.3222 713.77C50.7291 720.977 49.3036 727.012 49.1359 727.263C48.8844 727.431 48.2974 725.922 47.7943 723.911C43.1826 706.981 40.4155 702.036 34.8815 700.947C29.0958 699.941 24.9033 703.629 19.537 714.608C17.4407 718.882 15.4283 722.57 15.0929 722.821C13.4998 723.743 13.2482 718.882 13.8352 700.695C14.4221 682.257 14.0867 675.804 12.4936 676.726C10.8166 677.815 9.39115 687.286 7.54646 710.669C6.12101 728.017 7.54646 734.135 12.9128 734.135C16.5184 734.135 19.8724 730.196 25.1549 719.888C33.6237 703.294 34.2945 703.713 41.4217 729.107C43.7695 737.572 48.8005 740.086 53.1607 734.973C55.5085 732.124 56.8501 728.269 59.114 717.541C61.5457 706.227 61.7972 706.73 65.4027 734.554C66.7443 745.114 68.2536 755.842 68.7567 758.356C70.853 769.67 77.561 769.587 79.5733 758.189C80.0764 755.339 81.418 743.438 82.5919 731.705C83.7658 719.972 84.8559 710.25 85.0236 709.998C85.6105 709.495 86.1136 712.01 87.7068 723.24C89.5515 736.482 92.9893 750.813 94.9178 753.579C96.7625 756.261 99.6973 756.68 101.626 754.417C103.974 751.903 104.812 746.707 106.238 726.173C106.992 715.111 107.915 705.724 108.25 705.389C108.501 704.97 109.424 706.478 110.262 708.741C113.281 717.122 116.467 722.905 118.647 723.911C122.085 725.503 126.11 725.168 127.955 723.156C129.38 721.564 129.548 720.055 129.464 706.562C129.296 690.974 127.787 668.764 126.697 667.675C126.361 667.339 125.858 667.339 125.523 667.675Z" fill="#3761A1"/>
<path d="M299.008 745.869C297.331 748.132 295.654 750.059 295.151 750.059C294.732 750.059 292.468 749.305 290.12 748.383C287.772 747.461 285.34 746.707 284.67 746.707C282.573 746.707 283.244 749.473 286.682 754.25L289.952 758.776L287.856 761.877C285.089 766.067 285.843 766.989 291.797 766.654L296.66 766.402L300.182 770.425C305.38 776.292 307.98 775.37 306.219 768.33C305.716 766.402 305.464 764.642 305.632 764.475C305.8 764.223 307.812 763.804 309.992 763.385C312.172 762.966 314.52 762.044 315.275 761.29C316.365 760.117 316.365 759.865 314.855 758.776C313.933 758.021 310.998 756.345 308.231 754.92L303.368 752.49L303.955 748.97C304.961 743.355 304.877 742.181 303.452 741.846C302.613 741.678 300.936 743.187 299.008 745.869ZM292.635 754.25C292.635 754.669 292.468 755.088 292.3 755.088C292.048 755.088 291.629 754.669 291.378 754.25C291.126 753.747 291.294 753.412 291.713 753.412C292.216 753.412 292.635 753.747 292.635 754.25ZM300.182 759.278C300.182 762.212 298.589 762.547 296.492 760.2C295.318 758.859 295.235 758.189 295.989 756.848C297.331 754.25 300.182 755.926 300.182 759.278ZM306.47 758.608C307.98 759.278 308.315 759.781 307.561 760.284C305.8 761.374 304.626 761.038 304.123 759.278C303.62 757.351 303.62 757.267 306.47 758.608Z" fill="#3761A1"/>
<path d="M373.383 747.126C358.625 750.311 345.461 763.72 348.899 772.017C350.743 776.543 355.691 777.716 364.327 775.537L366.423 775.034L364.746 779.728C362.063 787.606 356.781 795.651 347.473 805.709C342.61 811.072 338.501 815.43 338.334 815.43C338.166 815.43 335.65 814.928 332.716 814.257C328.02 813.168 322.067 812.581 317.623 812.832C315.107 813 315.946 815.43 318.881 816.604C320.306 817.274 324.331 818.448 327.685 819.202C334.393 820.878 334.56 821.13 332.464 827.164C330.619 832.276 330.787 836.383 332.716 836.383C333.89 836.383 335.147 834.539 337.327 829.846C339.004 826.326 340.598 822.219 340.933 820.71C341.268 818.867 342.526 817.358 344.706 815.766C346.551 814.509 351.75 809.648 356.277 804.954C364.327 796.49 369.023 789.366 372.125 780.314L373.131 777.549L377.743 781.739C381.349 785.008 383.193 786.097 386.044 786.516C390.572 787.187 394.345 785.511 396.609 781.655C400.55 775.202 396.609 761.038 388.224 751.316C386.38 749.221 384.87 747.126 384.87 746.623C384.87 745.534 379.588 745.785 373.383 747.126ZM384.032 752.741C388.895 757.937 393.758 773.777 391.83 777.968C390.572 780.65 388.057 781.236 384.703 779.392C381.097 777.549 378.498 773.693 377.827 769.252C377.491 767.24 376.821 765.145 376.318 764.558C374.976 762.966 371.119 763.217 368.687 765.145C365.753 767.492 359.715 770.173 357.368 770.173C351.582 770.173 356.445 762.379 365.585 756.932C369.106 754.836 379.001 751.065 381.265 750.981C381.852 750.897 383.109 751.735 384.032 752.741Z" fill="#3761A1"/>
<path d="M276.201 760.954C273.937 761.876 272.931 764.223 274.608 764.81C276.033 765.396 280.98 762.714 281.567 761.122C281.903 759.949 278.884 759.865 276.201 760.954Z" fill="#3761A1"/>
<path d="M256.832 764.893C254.903 765.648 255.658 767.659 257.754 767.659C261.527 767.659 264.965 766.569 264.965 765.48C264.965 764.642 263.875 764.307 261.444 764.39C259.431 764.39 257.335 764.642 256.832 764.893Z" fill="#3761A1"/>
<path d="M164.597 767.324C164.346 768.078 164.514 770.509 165.1 772.855C166.526 779.141 166.358 779.644 162.25 781.907C155.877 785.343 156.715 787.438 164.765 788.444L169.628 789.031L171.557 795.232C172.563 798.669 173.905 801.77 174.575 802.105C176.252 803.194 179.271 799.674 181.283 794.311L183.044 789.366L186.398 789.617C188.83 789.785 189.92 789.45 190.591 788.444C191.429 787.187 190.926 786.349 187.991 783.331C184.218 779.476 183.967 778.471 185.476 773.358C186.818 768.749 185.56 767.659 181.535 770.09C179.858 771.012 178.013 771.85 177.51 771.85C176.923 771.85 174.492 770.509 172.144 768.916C167.364 765.732 165.436 765.312 164.597 767.324ZM171.976 773.442L173.905 774.951L172.06 775.956C170.383 776.794 170.131 776.711 169.377 774.783C168.874 773.526 168.538 772.436 168.538 772.185C168.538 771.347 170.131 771.933 171.976 773.442ZM179.439 782.326C179.439 785.175 179.355 785.259 176.169 785.259C173.989 785.259 172.731 784.84 172.395 783.918C171.473 781.571 171.808 780.65 174.156 779.225C177.343 777.297 179.439 778.554 179.439 782.326ZM167.7 784.421C167.7 784.84 167.364 785.259 166.861 785.259C166.442 785.259 166.023 784.84 166.023 784.421C166.023 783.918 166.442 783.583 166.861 783.583C167.364 783.583 167.7 783.918 167.7 784.421ZM177.762 792.048C176.42 796.49 175.582 796.49 174.743 792.131C174.24 789.701 174.408 789.45 176.336 789.45C178.349 789.45 178.433 789.617 177.762 792.048Z" fill="#3761A1"/>
<path d="M236.624 768.916C235.03 769.586 233.94 770.592 234.192 771.179C234.863 773.19 242.996 771.095 243.835 768.664C244.254 767.24 240.145 767.407 236.624 768.916Z" fill="#3761A1"/>
<path d="M217.758 772.352C214.739 773.274 213.817 773.944 213.985 775.034C214.32 776.626 215.242 776.542 222.034 774.699C224.634 773.861 226.394 772.939 226.394 772.184C226.394 770.676 223.041 770.76 217.758 772.352Z" fill="#3761A1"/>
<path d="M195.035 777.297C191.513 778.554 189.92 780.147 191.178 781.404C192.1 782.326 204.007 778.471 204.426 777.046C204.845 775.621 199.227 775.789 195.035 777.297Z" fill="#3761A1"/>
<path d="M192.435 790.204C191.764 791.377 196.628 794.31 200.233 794.981C207.109 796.322 202.749 791.461 195.621 789.952C194.112 789.617 192.771 789.701 192.435 790.204Z" fill="#3761A1"/>
<path d="M16.7698 791.545C16.7698 792.215 17.5244 794.646 18.4468 796.992C19.3691 799.339 20.1238 801.602 20.1238 802.021C20.1238 802.44 18.4468 803.781 16.3506 805.038C10.9003 808.223 11.4873 809.899 18.3629 810.402L23.7293 810.821L25.9094 816.688C27.5864 821.046 28.5926 822.638 29.9342 822.806C31.9466 823.141 32.7012 821.129 32.7012 815.263V811.324L38.7384 811.072C46.6203 810.737 47.1234 809.312 40.667 805.457C38.0676 803.865 35.8037 802.272 35.5521 801.853C35.3006 801.434 36.0552 799.507 37.2291 797.495C40.4154 791.964 38.5707 791.293 31.8627 795.4L27.6703 797.914L23.897 794.813C21.8008 793.053 20.1238 791.293 20.1238 790.958C20.1238 790.623 19.3691 790.288 18.4468 790.288C17.5244 790.288 16.7698 790.874 16.7698 791.545ZM29.515 805.373C29.2634 808.139 28.6765 808.474 27.0833 806.882C25.4902 805.206 26.2448 802.608 28.2572 803.027C29.2634 803.278 29.6827 804.032 29.515 805.373ZM35.636 807.05C35.8875 807.469 35.7198 807.888 35.3006 807.888C34.7975 807.888 34.3782 807.469 34.3782 807.05C34.3782 806.547 34.5459 806.211 34.7136 806.211C34.9652 806.211 35.3844 806.547 35.636 807.05Z" fill="#3761A1"/>
<path d="M144.054 791.21C141.203 792.802 142.545 793.64 147.995 793.64C151.013 793.64 153.445 793.305 153.445 792.97C153.445 790.539 147.156 789.366 144.054 791.21Z" fill="#3761A1"/>
<path d="M125.775 792.718C123.93 793.053 122.756 793.724 122.589 794.646C122.337 795.903 122.924 796.154 126.362 796.154C128.542 796.154 131.225 795.903 132.315 795.651C134.579 794.981 134.831 792.802 132.567 792.802C131.645 792.802 130.471 792.634 129.8 792.467C129.213 792.299 127.368 792.383 125.775 792.718Z" fill="#3761A1"/>
<path d="M244.674 795.4L241.907 798.668L237.043 797.83C230.755 796.657 226.059 796.992 225.724 798.668C225.64 799.422 227.317 802.02 229.665 804.535L233.773 809.144L231.342 812.161C230 813.838 228.91 815.681 228.91 816.184C228.91 817.358 232.18 817.358 236.96 816.184L240.817 815.179L245.261 819.62C251.382 825.655 252.807 825.236 252.891 817.525L252.975 811.659L256.077 810.485C260.354 808.893 259.934 806.462 255.071 804.619C250.627 802.859 249.872 801.853 249.872 796.908C249.872 791.544 248.195 791.125 244.674 795.4ZM238.133 802.02C239.224 802.691 239.224 802.942 237.882 804.283C236.54 805.708 236.373 805.624 234.193 803.445L231.845 801.182H234.36C235.786 801.182 237.463 801.601 238.133 802.02ZM246.351 804.702C246.938 805.289 247.357 806.546 247.357 807.636C247.357 810.066 243.919 811.659 241.404 810.401C239.307 809.228 239.391 808.055 241.655 805.624C243.668 803.445 244.841 803.194 246.351 804.702ZM249.034 815.598C249.034 817.358 248.95 817.358 247.357 815.849C246.099 814.676 245.931 814.089 246.686 813.67C248.112 812.748 249.034 813.502 249.034 815.598Z" fill="#3761A1"/>
<path d="M97.8528 794.226C97.0143 794.478 96.4274 795.232 96.5951 795.986C96.8466 797.16 97.6851 797.327 101.039 797.16C105.735 796.825 107.579 795.735 105.651 794.478C104.393 793.64 100.536 793.556 97.8528 794.226Z" fill="#3761A1"/>
<path d="M72.6978 795.903C72.3624 796.154 72.1108 796.909 72.1108 797.579C72.1108 798.333 73.5363 798.669 77.4772 798.669C82.8436 798.669 85.1914 797.495 82.9275 796.071C81.5859 795.233 73.4524 795.065 72.6978 795.903Z" fill="#3761A1"/>
<path d="M162.752 798.333C160.74 800.931 160.489 802.858 162.165 802.858C163.591 802.858 166.861 799.003 166.861 797.327C166.861 795.399 164.597 795.986 162.752 798.333Z" fill="#3761A1"/>
<path d="M211.301 798.082C211.301 799.842 219.602 804.116 220.692 803.027C221.95 801.769 220.105 799.59 216.584 798.082C213.146 796.657 211.301 796.657 211.301 798.082Z" fill="#3761A1"/>
<path d="M52.8254 798.585C50.9807 798.92 49.8906 799.591 49.8906 800.345C49.8906 803.027 59.701 801.937 60.2041 799.255C60.5395 797.747 58.611 797.579 52.8254 798.585Z" fill="#3761A1"/>
<path d="M155.29 808.809C152.607 811.491 150.343 815.933 151.181 816.771C152.858 818.447 159.315 811.323 159.315 807.719C159.315 805.54 158.225 805.876 155.29 808.809Z" fill="#3761A1"/>
<path d="M49.4717 817.106C49.4717 818.364 53.0772 821.381 54.4188 821.129C56.5989 820.71 56.3474 818.866 53.748 817.609C50.8971 816.101 49.4717 815.933 49.4717 817.106Z" fill="#3761A1"/>
<path d="M219.519 817.442C216.081 820.04 219.267 821.632 222.873 819.118C223.879 818.447 224.717 817.525 224.717 817.023C224.717 815.933 221.196 816.184 219.519 817.442Z" fill="#3761A1"/>
<path d="M207.947 822.805C204.845 824.314 203.503 827.164 205.851 827.164C208.115 827.164 213.817 823.895 213.817 822.554C213.817 820.878 211.553 820.962 207.947 822.805Z" fill="#3761A1"/>
<path d="M61.6295 824.733C60.9587 825.739 65.9897 831.354 67.6667 831.354C69.5953 831.354 68.8406 828.337 66.4928 826.661C62.8034 823.979 62.2165 823.727 61.6295 824.733Z" fill="#3761A1"/>
<path d="M138.101 829.846C134.998 833.366 134.327 835.042 135.753 835.88C136.508 836.383 144.222 828.421 144.222 827.08C144.222 825.152 140.868 826.661 138.101 829.846Z" fill="#3761A1"/>
<path d="M191.597 830.013C184.302 833.366 183.295 836.97 190.507 834.204C195.118 832.36 198.892 829.762 198.305 828.756C197.55 827.667 196.292 827.918 191.597 830.013Z" fill="#3761A1"/>
<path d="M384.367 833.784C369.358 838.059 356.612 848.786 352.084 860.855C350.575 864.961 349.988 865.716 348.227 865.716C344.119 865.716 337.914 870.661 335.147 876.192C332.883 880.801 328.69 895.636 328.69 899.239C328.69 904.771 330.451 902.424 334.979 890.607C339.759 878.203 341.352 875.521 344.957 873.342C348.814 870.912 349.485 871.08 350.994 874.935C352.671 879.041 355.187 880.131 357.367 877.449C359.128 875.186 359.212 873.594 357.619 870.744C355.774 867.56 356.109 864.794 358.876 859.179C361.979 853.061 368.938 846.356 376.149 842.501C393.59 833.198 415.978 836.969 425.956 850.798C429.813 856.078 429.897 857.419 426.459 861.944C424.279 864.794 423.441 866.638 423.441 868.984C423.441 872.756 424.614 874.097 428.136 874.097C431.406 874.097 433.838 871.415 435.347 866.219C436.521 862.112 437.192 861.525 441.133 861.525C449.937 861.525 457.819 875.857 456.058 888.931C455.639 892.535 453.878 896.893 449.35 905.693C443.732 916.588 442.726 919.689 445.242 918.097C447.17 916.923 453.71 907.118 456.98 900.58C461.173 892.032 462.347 886.081 461.257 879.125C458.909 864.71 449.769 855.072 439.12 855.826L434.844 856.078L432.748 851.887C428.555 843.59 418.745 836.215 408.264 833.449C402.143 831.773 390.655 831.941 384.367 833.784Z" fill="#3761A1"/>
<path d="M274.943 842.668C264.211 849.96 261.192 852.307 246.938 865.213C230.755 879.796 223.544 883.903 218.093 881.64C215.159 880.466 213.733 877.701 210.463 866.806C208.031 858.676 206.354 855.827 204.677 856.832C202.581 858.173 204.929 881.305 207.696 885.998C211.721 892.954 220.944 895.887 229.665 892.954C238.301 890.105 256.161 875.438 276.956 853.983C287.437 843.255 289.366 840.908 289.114 838.981C288.611 834.79 285.425 835.629 274.943 842.668Z" fill="#3761A1"/>
<path d="M74.6265 838.478C74.6265 840.154 78.8189 843.842 80.7475 843.926C83.0114 843.926 82.4245 841.831 79.5736 839.4C76.7227 836.97 74.6265 836.551 74.6265 838.478Z" fill="#3761A1"/>
<path d="M166.274 839.4C161.662 841.663 160.405 843.926 163.759 843.926C166.19 843.926 174.659 839.735 175.078 838.227C175.582 836.551 170.97 837.137 166.274 839.4Z" fill="#3761A1"/>
<path d="M126.864 843.422C123.51 846.272 120.911 851.133 122.169 852.39C123.427 853.647 124.181 853.061 127.871 847.697C130.134 844.512 130.805 842.752 130.218 842.165C129.631 841.579 128.625 841.998 126.864 843.422Z" fill="#3761A1"/>
<path d="M147.995 846.104C141.79 848.786 139.945 850.295 142.041 851.133C144.641 852.139 156.631 846.44 155.541 844.763C154.787 843.506 153.613 843.758 147.995 846.104Z" fill="#3761A1"/>
<path d="M103.639 851.636L101.626 854.318L97.2661 853.312C94.9183 852.725 92.0674 852.306 90.8935 852.306C87.7911 852.306 88.2942 855.575 91.8159 859.011L94.7506 861.86L91.3128 865.38C89.1327 867.559 87.9588 869.487 88.2103 870.409C88.4619 871.834 89.2165 872.001 95.673 871.75L102.716 871.498L104.309 874.18C110.263 884.321 115.545 884.405 112.862 874.264L111.688 869.906L113.868 869.403C120.325 867.979 121.163 867.643 121.163 866.47C121.163 865.799 118.732 864.039 115.797 862.615C109.592 859.514 109.005 858.843 109.005 854.653C109.005 848.367 107.077 847.278 103.639 851.636ZM98.1046 858.173C98.1046 858.592 97.9369 859.011 97.7692 859.011C97.5177 859.011 97.0984 858.592 96.8469 858.173C96.5953 857.67 96.763 857.335 97.1823 857.335C97.6854 857.335 98.1046 857.67 98.1046 858.173ZM104.645 860.855C105.232 861.441 105.651 863.201 105.651 864.794V867.811L102.968 865.129C100.704 862.866 100.536 862.279 101.459 861.19C102.716 859.598 103.303 859.514 104.645 860.855ZM98.7754 867.224C98.9431 867.811 98.1885 868.23 96.8469 868.23C94.8345 868.23 94.6668 868.062 95.5891 866.973C96.763 865.548 98.1885 865.632 98.7754 867.224Z" fill="#3761A1"/>
<path d="M125.104 853.815C122.253 855.24 121.666 858.006 124.349 857.503C127.2 857 133.321 854.066 133.321 853.145C133.321 851.887 128.206 852.223 125.104 853.815Z" fill="#3761A1"/>
</g>
<defs>
<clipPath id="clip0_89_733">
<rect width="393" height="852" fill="white"/>
</clipPath>
</defs>
</svg>
