<svg width="50" height="50" viewBox="0 0 50 50" fill="none" xmlns="http://www.w3.org/2000/svg">
<path d="M25 49.0469C21.6562 49.0469 18.5078 48.4062 15.5547 47.125C12.6016 45.8594 10 44.1016 7.75 41.8516C5.5 39.6016 3.73438 37.0078 2.45312 34.0703C1.1875 31.1172 0.554688 27.9609 0.554688 24.6016C0.554688 21.2578 1.1875 18.1172 2.45312 15.1797C3.73438 12.2266 5.49219 9.625 7.72656 7.375C9.97656 5.125 12.5781 3.36719 15.5312 2.10156C18.4844 0.820312 21.6328 0.179688 24.9766 0.179688C28.3203 0.179688 31.4688 0.820312 34.4219 2.10156C37.3906 3.36719 39.9922 5.125 42.2266 7.375C44.4766 9.625 46.2422 12.2266 47.5234 15.1797C48.8047 18.1172 49.4453 21.2578 49.4453 24.6016C49.4453 27.9609 48.8047 31.1172 47.5234 34.0703C46.2422 37.0078 44.4766 39.6016 42.2266 41.8516C39.9922 44.1016 37.3984 45.8594 34.4453 47.125C31.4922 48.4062 28.3438 49.0469 25 49.0469ZM14.1719 25.7266C14.1719 27.7266 14.6562 29.5547 15.625 31.2109C16.6094 32.8672 17.9141 34.1875 19.5391 35.1719C21.1797 36.1562 23 36.6484 25 36.6484C26.9844 36.6484 28.7969 36.1562 30.4375 35.1719C32.0781 34.1875 33.3828 32.875 34.3516 31.2344C35.3203 29.5938 35.8047 27.7734 35.8047 25.7734C35.8047 25.2422 35.6094 24.7891 35.2188 24.4141C34.8281 24.0234 34.375 23.8281 33.8594 23.8281C33.2969 23.8281 32.8203 24.0234 32.4297 24.4141C32.0547 24.7891 31.8672 25.2422 31.8672 25.7734C31.8672 27.0547 31.5547 28.2188 30.9297 29.2656C30.3203 30.2969 29.4922 31.125 28.4453 31.75C27.4141 32.375 26.2656 32.6875 25 32.6875C23.7188 32.6875 22.5547 32.375 21.5078 31.75C20.4766 31.125 19.6562 30.2969 19.0469 29.2656C18.4375 28.2188 18.1328 27.0547 18.1328 25.7734C18.1328 24.6016 18.3984 23.5234 18.9297 22.5391C19.4609 21.5547 20.1719 20.7578 21.0625 20.1484C21.9688 19.5391 22.9844 19.2109 24.1094 19.1641C24.3906 19.1484 24.6406 19.125 24.8594 19.0938L23.1953 20.8047C22.9297 21.0859 22.7969 21.4531 22.7969 21.9062C22.7969 22.4531 22.9766 22.8906 23.3359 23.2188C23.6953 23.5469 24.1328 23.7109 24.6484 23.7109C25.1328 23.7109 25.5625 23.5234 25.9375 23.1484L30.4375 18.6484C30.7969 18.3047 30.9688 17.8672 30.9531 17.3359C30.9531 16.8047 30.7812 16.3594 30.4375 16L25.9609 11.4766C25.7891 11.3047 25.5859 11.1562 25.3516 11.0312C25.1172 10.9063 24.875 10.8438 24.625 10.8438C24.0625 10.8438 23.6172 11.0234 23.2891 11.3828C22.9609 11.7266 22.7969 12.125 22.7969 12.5781C22.7969 12.8594 22.8438 13.1016 22.9375 13.3047C23.0312 13.5078 23.1406 13.6875 23.2656 13.8438L24.4844 15.1094C24.4062 15.1094 24.3125 15.1094 24.2031 15.1094C24.1094 15.1094 24.0156 15.1094 23.9219 15.1094C22.1719 15.2031 20.5547 15.7344 19.0703 16.7031C17.6016 17.6719 16.4141 18.9453 15.5078 20.5234C14.6172 22.0859 14.1719 23.8203 14.1719 25.7266Z" fill="white"/>
</svg>
